<mxfile host="app.diagrams.net" modified="2021-08-06T23:48:41.501Z" agent="5.0 (Macintosh)" etag="l8WmeeVoIKU7Hl-081x9" version="14.9.5" type="github">
  <diagram name="Page-1" id="c7558073-3199-34d8-9f00-42111426c3f3">
    <mxGraphModel dx="2465" dy="988" grid="1" gridSize="10" guides="1" tooltips="1" connect="1" arrows="1" fold="1" page="1" pageScale="1" pageWidth="826" pageHeight="1169" background="none" math="0" shadow="0">
      <root>
        <mxCell id="0" />
        <mxCell id="1" parent="0" />
        <mxCell id="12" value="Management" style="whiteSpace=wrap;align=center;verticalAlign=middle;fontStyle=1;strokeWidth=3;fillColor=#FFFFCC" parent="1" vertex="1">
          <mxGeometry x="691" y="60.00000000000002" width="90" height="60" as="geometry" />
        </mxCell>
        <mxCell id="BZPcOEvATtFbrHCgnKJJ-96" value="Main Driver" style="swimlane;" vertex="1" parent="1">
          <mxGeometry x="271" y="800" width="370" height="380" as="geometry" />
        </mxCell>
        <mxCell id="BZPcOEvATtFbrHCgnKJJ-101" value="&lt;p style=&quot;margin: 4px 0px 0px ; text-align: center&quot;&gt;&lt;strong&gt;&lt;strong&gt;e3sm_diags_driver.py&lt;/strong&gt;&lt;/strong&gt;&lt;/p&gt;&lt;hr&gt;&lt;p style=&quot;margin: 0px ; margin-left: 8px&quot;&gt;Parse input parameters &lt;br&gt;&lt;/p&gt;&lt;p style=&quot;margin: 0px ; margin-left: 8px&quot;&gt;Drive specified sets&lt;br&gt;&lt;/p&gt;" style="verticalAlign=middle;align=center;overflow=fill;fontSize=12;fontFamily=Helvetica;html=1;rounded=1;fontStyle=1;strokeWidth=3;fillColor=#E6FFCC" vertex="1" parent="BZPcOEvATtFbrHCgnKJJ-96">
          <mxGeometry x="49" y="30" width="286.5" height="70" as="geometry" />
        </mxCell>
        <mxCell id="BZPcOEvATtFbrHCgnKJJ-102" value="&lt;p style=&quot;margin: 4px 0px 0px ; text-align: center&quot;&gt;Multiple sub drivers&lt;br&gt;&lt;/p&gt;&lt;hr&gt;&lt;p style=&quot;margin: 0px ; margin-left: 8px&quot;&gt;File IO and computation&lt;/p&gt;&lt;p style=&quot;margin: 0px ; margin-left: 8px&quot;&gt;Plotting&lt;/p&gt;&lt;p style=&quot;margin: 0px ; margin-left: 8px&quot;&gt;Parameter: Core + Set-specfic parameters&lt;/p&gt;&lt;p style=&quot;margin: 0px ; margin-left: 8px&quot;&gt;Parser: Core + Set-specfic parser&lt;/p&gt;&lt;p style=&quot;margin: 0px ; margin-left: 8px&quot;&gt;Viewer&lt;/p&gt;&lt;p style=&quot;margin: 0px ; margin-left: 8px&quot;&gt;Default configuration files: detailing variables &lt;br&gt;&lt;/p&gt;&lt;p style=&quot;margin: 0px ; margin-left: 8px&quot;&gt;and other settings&lt;br&gt;&lt;/p&gt;&lt;p style=&quot;margin: 0px ; margin-left: 8px&quot;&gt;&lt;br&gt;&lt;/p&gt;" style="verticalAlign=middle;align=center;overflow=fill;fontSize=12;fontFamily=Helvetica;html=1;rounded=1;fontStyle=1;strokeWidth=3;fillColor=#E6FFCC" vertex="1" parent="BZPcOEvATtFbrHCgnKJJ-96">
          <mxGeometry x="51.13" y="120" width="282.25" height="140" as="geometry" />
        </mxCell>
        <mxCell id="BZPcOEvATtFbrHCgnKJJ-103" value="&lt;p style=&quot;margin: 0px ; margin-top: 4px ; text-align: center ; text-decoration: underline&quot;&gt;&lt;strong&gt;Key Utilities&lt;br&gt;&lt;/strong&gt;&lt;/p&gt;&lt;hr&gt;&lt;p style=&quot;margin: 0px ; margin-left: 8px&quot;&gt;Dataset:File IO and derived variable&lt;/p&gt;&lt;p style=&quot;margin: 0px ; margin-left: 8px&quot;&gt;Climo: computing seasonal mean&lt;/p&gt;&lt;p style=&quot;margin: 0px ; margin-left: 8px&quot;&gt;General utilities: Data subsetting remapping&lt;br&gt;&lt;/p&gt;" style="verticalAlign=middle;align=center;overflow=fill;fontSize=12;fontFamily=Helvetica;html=1;rounded=1;fontStyle=1;strokeWidth=3;fillColor=#E6FFCC" vertex="1" parent="1">
          <mxGeometry x="324.25" y="1070" width="285.75" height="90" as="geometry" />
        </mxCell>
        <mxCell id="BZPcOEvATtFbrHCgnKJJ-106" value="&lt;div&gt;HTML pages&lt;br&gt;&lt;/div&gt;&lt;div&gt;Figures&lt;/div&gt;&lt;div&gt;Tables&lt;/div&gt;&lt;div&gt;Netcdf files(optional)&lt;/div&gt;&lt;div&gt;&lt;br&gt;&lt;/div&gt;" style="whiteSpace=wrap;html=1;rounded=1;fontStyle=1;strokeWidth=3;fillColor=#fff2cc;strokeColor=#d6b656;" vertex="1" parent="1">
          <mxGeometry x="767.13" y="950" width="152.88" height="80" as="geometry" />
        </mxCell>
        <mxCell id="BZPcOEvATtFbrHCgnKJJ-107" value="" style="edgeStyle=orthogonalEdgeStyle;rounded=0;orthogonalLoop=1;jettySize=auto;html=1;" edge="1" parent="1" source="BZPcOEvATtFbrHCgnKJJ-102" target="BZPcOEvATtFbrHCgnKJJ-106">
          <mxGeometry relative="1" as="geometry" />
        </mxCell>
        <mxCell id="BZPcOEvATtFbrHCgnKJJ-108" value="Output" style="text;html=1;strokeColor=none;fillColor=none;align=center;verticalAlign=middle;whiteSpace=wrap;rounded=0;" vertex="1" parent="1">
          <mxGeometry x="651" y="970" width="40" height="20" as="geometry" />
        </mxCell>
        <mxCell id="BZPcOEvATtFbrHCgnKJJ-109" value="Main viewer" style="swimlane;startSize=23;" vertex="1" parent="1">
          <mxGeometry x="700" y="860" width="299" height="260" as="geometry" />
        </mxCell>
        <mxCell id="BZPcOEvATtFbrHCgnKJJ-113" value="&lt;div&gt;Consolidates outputs from individual sub drivers&lt;/div&gt;" style="text;html=1;align=center;verticalAlign=middle;resizable=0;points=[];autosize=1;strokeColor=none;" vertex="1" parent="BZPcOEvATtFbrHCgnKJJ-109">
          <mxGeometry x="14.5" y="45" width="270" height="20" as="geometry" />
        </mxCell>
        <mxCell id="BZPcOEvATtFbrHCgnKJJ-114" value="Input" style="swimlane;startSize=23;" vertex="1" parent="1">
          <mxGeometry x="-90" y="840" width="300" height="310" as="geometry" />
        </mxCell>
        <mxCell id="BZPcOEvATtFbrHCgnKJJ-116" value="&lt;p style=&quot;margin: 4px 0px 0px ; text-align: center&quot;&gt;&lt;strong&gt;&lt;strong&gt;User configured input&lt;/strong&gt;&lt;br&gt;&lt;/strong&gt;&lt;/p&gt;&lt;p style=&quot;margin: 0px ; margin-top: 4px ; text-align: center ; text-decoration: underline&quot;&gt;&lt;strong&gt;(in a Python script or a command line)&lt;br&gt;&lt;/strong&gt;&lt;/p&gt;&lt;hr&gt;&lt;div&gt;Specifies: input/output paths, selected sets,&lt;/div&gt;&lt;div&gt;output format, etc. &lt;br&gt;&lt;/div&gt;" style="verticalAlign=middle;align=center;overflow=fill;fontSize=12;fontFamily=Helvetica;html=1;rounded=1;fontStyle=1;strokeWidth=3;fillColor=#dae8fc;strokeColor=#6c8ebf;" vertex="1" parent="BZPcOEvATtFbrHCgnKJJ-114">
          <mxGeometry x="43" y="35" width="247" height="90" as="geometry" />
        </mxCell>
        <mxCell id="BZPcOEvATtFbrHCgnKJJ-119" value="&lt;strong&gt;Observations&lt;/strong&gt;&lt;hr&gt;Pre-processed Model data" style="verticalAlign=middle;align=center;overflow=fill;fontSize=12;fontFamily=Helvetica;html=1;rounded=1;fontStyle=1;strokeWidth=3;fillColor=#dae8fc;strokeColor=#6c8ebf;" vertex="1" parent="BZPcOEvATtFbrHCgnKJJ-114">
          <mxGeometry x="43" y="160" width="247" height="90" as="geometry" />
        </mxCell>
      </root>
    </mxGraphModel>
  </diagram>
</mxfile>
